<svg id="SvgjsSvg1001" width="288" height="288" xmlns="http://www.w3.org/2000/svg" version="1.1" xmlns:xlink="http://www.w3.org/1999/xlink" xmlns:svgjs="http://svgjs.com/svgjs"><defs id="SvgjsDefs1002"></defs><g id="SvgjsG1008" transform="matrix(0.9167,0,0,0.9167,11.995199880838413,11.995199880838413)"><svg xmlns="http://www.w3.org/2000/svg" enable-background="new 0 0 47.5 47.5" viewBox="0 0 47.5 47.5" width="288" height="288"><defs><clipPath id="a" clipPathUnits="userSpaceOnUse"><path d="M 0,38 38,38 38,0 0,0 0,38 Z" fill="#000000" class="color000 svgShape"></path></clipPath></defs><g clip-path="url(#a)" transform="matrix(1.25 0 0 -1.25 0 47.5)" fill="#000000" class="color000 svgShape"><path fill="#11a8fd" d="m 0,0 c 0,-2.209 -1.791,-4 -4,-4 l -28,0 c -2.209,0 -4,1.791 -4,4 l 0,28 c 0,2.209 1.791,4 4,4 l 28,0 c 2.209,0 4,-1.791 4,-4 L 0,0 Z" transform="translate(37 5)" class="color77b255 svgShape"></path><path fill="#ffffff" d="m 0,0 c -0.64,0 -1.28,0.244 -1.768,0.732 l -6.5,6.5 c -0.976,0.977 -0.976,2.559 0,3.536 0.976,0.976 2.56,0.976 3.536,0 L 0,6.035 13.732,19.768 c 0.977,0.976 2.559,0.976 3.536,0 0.976,-0.977 0.976,-2.559 0,-3.536 L 1.768,0.732 C 1.28,0.244 0.64,0 0,0" transform="translate(14.5 8)" class="colorfff svgShape"></path></g></svg></g></svg>